<svg xmlns="http://www.w3.org/2000/svg" width="532.48" height="92.16" viewBox="0 0 532.48 92.16">
  <path id="Path_1" data-name="Path 1" d="M11.52-46.72q0-2.432-.128-6.272T11.008-59.9h8.32q.256,2.432.384,5.376t.128,4.864H20.1a20.749,20.749,0,0,1,7.68-8.512A20.975,20.975,0,0,1,39.3-61.44q1.664,0,3.008.128a16.35,16.35,0,0,1,2.752.512L43.9-52.608a16.369,16.369,0,0,0-2.56-.512,25.312,25.312,0,0,0-3.584-.256A17.761,17.761,0,0,0,31.1-52.1a14.271,14.271,0,0,0-5.568,4.032,21.246,21.246,0,0,0-3.84,7.04,31.884,31.884,0,0,0-1.472,10.3V0h-8.7Zm103.3,16.768a32.673,32.673,0,0,1-2.368,12.544,30.176,30.176,0,0,1-6.592,9.984A29.874,29.874,0,0,1,95.744-.832,34.34,34.34,0,0,1,82.816,1.536a33.989,33.989,0,0,1-12.8-2.368A29.874,29.874,0,0,1,59.9-7.424a30.176,30.176,0,0,1-6.592-9.984,32.673,32.673,0,0,1-2.368-12.544A32.673,32.673,0,0,1,53.312-42.5,30.176,30.176,0,0,1,59.9-52.48a29.874,29.874,0,0,1,10.112-6.592,33.989,33.989,0,0,1,12.8-2.368,34.34,34.34,0,0,1,12.928,2.368,29.874,29.874,0,0,1,10.112,6.592,30.176,30.176,0,0,1,6.592,9.984A32.673,32.673,0,0,1,114.816-29.952Zm-9.216,0A27.405,27.405,0,0,0,104-39.36a23.05,23.05,0,0,0-4.544-7.68,21.5,21.5,0,0,0-7.168-5.184,22.636,22.636,0,0,0-9.472-1.92,22.2,22.2,0,0,0-9.408,1.92,21.677,21.677,0,0,0-7.1,5.184,23.05,23.05,0,0,0-4.544,7.68,27.405,27.405,0,0,0-1.6,9.408,27.405,27.405,0,0,0,1.6,9.408,23.05,23.05,0,0,0,4.544,7.68,20.918,20.918,0,0,0,7.1,5.12,22.856,22.856,0,0,0,9.408,1.856,23.307,23.307,0,0,0,9.472-1.856,20.764,20.764,0,0,0,7.168-5.12A23.05,23.05,0,0,0,104-20.544,27.405,27.405,0,0,0,105.6-29.952Zm65.664-8.7q0-7.808-4.1-11.648t-11.9-3.84a25.7,25.7,0,0,0-9.984,1.92,23.873,23.873,0,0,0-7.808,5.12l-4.864-5.76a28.721,28.721,0,0,1,9.792-6.144,36.791,36.791,0,0,1,13.76-2.432,29.813,29.813,0,0,1,9.088,1.344,21.576,21.576,0,0,1,7.424,4.032,18.259,18.259,0,0,1,4.992,6.784,23.793,23.793,0,0,1,1.792,9.6v26.24q0,3.456.256,7.168A50.315,50.315,0,0,0,180.48,0h-7.808q-.384-2.176-.64-4.736t-.256-4.992h-.256a25.25,25.25,0,0,1-9.28,8.64,27.365,27.365,0,0,1-12.48,2.624,27.86,27.86,0,0,1-7.1-.96A19.889,19.889,0,0,1,136-2.56a17.728,17.728,0,0,1-4.992-5.632,16.723,16.723,0,0,1-1.984-8.448q0-6.912,3.52-10.944a21.119,21.119,0,0,1,9.408-6.016,55.456,55.456,0,0,1,13.5-2.56q7.616-.576,15.808-.576Zm-2.56,8.7q-5.376,0-10.816.448a47.175,47.175,0,0,0-9.856,1.792,18.636,18.636,0,0,0-7.232,3.9,8.727,8.727,0,0,0-2.816,6.784,10.889,10.889,0,0,0,1.216,5.376,9.946,9.946,0,0,0,3.264,3.52,13.906,13.906,0,0,0,4.544,1.92,22.413,22.413,0,0,0,5.056.576,19.905,19.905,0,0,0,8.192-1.6,17.333,17.333,0,0,0,6.016-4.352,19.236,19.236,0,0,0,3.712-6.336,22.284,22.284,0,0,0,1.28-7.552v-4.48Zm41.728-19.712a20.374,20.374,0,0,1,7.872-8.512,22.167,22.167,0,0,1,11.84-3.264,26.4,26.4,0,0,1,5.056.512,16.125,16.125,0,0,1,5.12,1.984,18.706,18.706,0,0,1,4.608,3.9,21.893,21.893,0,0,1,3.648,6.272,22.561,22.561,0,0,1,8.384-9.408,23.607,23.607,0,0,1,12.608-3.264q11.392,0,17.088,6.784t5.7,17.92V0h-8.7V-33.152q0-9.472-3.52-15.232t-11.968-5.76a15.534,15.534,0,0,0-8,1.92,15.274,15.274,0,0,0-5.248,5.056,22.4,22.4,0,0,0-2.88,7.1,37.079,37.079,0,0,0-.9,8.192V0h-8.7V-34.944a45.3,45.3,0,0,0-.64-7.936,16.553,16.553,0,0,0-2.24-6.08,10.477,10.477,0,0,0-4.416-3.84,16.658,16.658,0,0,0-7.168-1.344,15.066,15.066,0,0,0-6.208,1.408,16.255,16.255,0,0,0-5.632,4.288,22.084,22.084,0,0,0-4.032,7.3A31.808,31.808,0,0,0,210.56-30.72V0h-8.7V-46.72q0-2.432-.128-6.272t-.384-6.912h8.32q.256,2.432.384,5.376t.128,4.864ZM323.712,0h-8.7V-59.9h8.7Zm32,0h-8.7V-59.9h8.7Zm32,0h-8.7V-59.9h8.7Zm30.976-59.9q.256,2.432.384,5.376t.128,4.864h.256a19.712,19.712,0,0,1,8.32-8.512,24.3,24.3,0,0,1,12.16-3.264q11.392,0,17.088,6.784t5.7,17.92V0h-8.7V-33.152a43.882,43.882,0,0,0-.768-8.576,17.954,17.954,0,0,0-2.624-6.592,12.545,12.545,0,0,0-4.992-4.288,17.849,17.849,0,0,0-7.872-1.536,16.805,16.805,0,0,0-6.72,1.408,16.511,16.511,0,0,0-5.824,4.288,21.434,21.434,0,0,0-4.1,7.3,31.807,31.807,0,0,0-1.536,10.432V0h-8.7V-46.72q0-2.432-.128-6.272t-.384-6.912Zm69.76,71.936a28.936,28.936,0,0,0,9.792,7.808,28.247,28.247,0,0,0,13.12,3.2,28.425,28.425,0,0,0,10.88-1.856,18.851,18.851,0,0,0,7.232-5.056A20.181,20.181,0,0,0,533.5,8.64a31.843,31.843,0,0,0,1.28-9.152V-11.776h-.256a22.9,22.9,0,0,1-9.792,8.7A29.208,29.208,0,0,1,511.872,0a33.689,33.689,0,0,1-12.736-2.3,28.886,28.886,0,0,1-9.728-6.336,28.243,28.243,0,0,1-6.272-9.664,32.6,32.6,0,0,1-2.24-12.16,32.255,32.255,0,0,1,2.24-12.032,30.372,30.372,0,0,1,6.272-9.856,29.019,29.019,0,0,1,9.728-6.656,32.125,32.125,0,0,1,12.736-2.432,28.807,28.807,0,0,1,12.8,3.072,23.545,23.545,0,0,1,9.856,8.832h.256V-59.9h8.7V-.512a43.792,43.792,0,0,1-1.344,10.368,26.126,26.126,0,0,1-4.992,10.112,28.193,28.193,0,0,1-9.92,7.68q-6.272,3.072-16.256,3.072a40.269,40.269,0,0,1-15.872-3.2,38.279,38.279,0,0,1-12.928-8.832Zm1.664-42.752a26.013,26.013,0,0,0,1.536,8.96,22.433,22.433,0,0,0,4.416,7.424,20.51,20.51,0,0,0,7.1,5.056,23.641,23.641,0,0,0,9.6,1.856,24.926,24.926,0,0,0,9.216-1.664,21.144,21.144,0,0,0,7.3-4.736,21.785,21.785,0,0,0,4.8-7.36,25.3,25.3,0,0,0,1.728-9.536,23.434,23.434,0,0,0-1.728-8.96,23.406,23.406,0,0,0-4.8-7.424,23.447,23.447,0,0,0-7.3-5.12,22.007,22.007,0,0,0-9.216-1.92,22.958,22.958,0,0,0-9.6,1.92,21.238,21.238,0,0,0-7.1,5.12,22.433,22.433,0,0,0-4.416,7.424A26.013,26.013,0,0,0,490.112-30.72Z" transform="translate(-11.008 61.44)" fill="#8ccb75"/>
</svg>
